<svg
  width="41.28"
  height="41.28"
  xmlns="http://www.w3.org/2000/svg"
  data-name="Warstwa 1"
>

 <g>
  <title>Layer 1</title>
  <g stroke="null" id="Github">
   <path
        stroke="null"
        id="svg_1"
        text-align="center"
        fill="#a1b986"
        d="m20.85708,7.10444c-7.57713,0 -13.71426,6.03326 -13.71426,13.48214c0,5.96585 3.92571,11.0048 9.37712,12.79118c0.68571,0.11797 0.94286,-0.2865 0.94286,-0.6404c0,-0.3202 -0.01714,-1.38192 -0.01714,-2.51105c-3.44571,0.62355 -4.33713,-0.82578 -4.61142,-1.58415c-0.15429,-0.38761 -0.82286,-1.58415 -1.40571,-1.90435c-0.48,-0.25279 -1.16571,-0.87634 -0.01714,-0.89319c1.08,-0.01685 1.85142,0.97746 2.10857,1.38192c1.23428,2.03917 3.20571,1.46618 3.99428,1.11228c0.12,-0.87634 0.48,-1.46618 0.87428,-1.80324c-3.05142,-0.33705 -6.23999,-1.49989 -6.23999,-6.65681c0,-1.46618 0.53143,-2.67958 1.40571,-3.62333c-0.13714,-0.33705 -0.61714,-1.71897 0.13714,-3.57277c0,0 1.14857,-0.35391 3.77142,1.38192c1.09714,-0.30335 2.26285,-0.45502 3.42856,-0.45502c1.16571,0 2.33142,0.15167 3.42856,0.45502c2.62285,-1.75268 3.77142,-1.38192 3.77142,-1.38192c0.75428,1.85379 0.27429,3.23571 0.13714,3.57277c0.87428,0.94375 1.40571,2.14029 1.40571,3.62333c0,5.17377 -3.20571,6.31975 -6.25713,6.65681c0.49714,0.42132 0.92571,1.23025 0.92571,2.4942c0,1.80324 -0.01714,3.25257 -0.01714,3.70759c0,0.35391 0.25714,0.77522 0.94286,0.6404a13.73483,13.50237 0 0 0 9.34284,-12.79118c0,-7.44888 -6.13713,-13.48214 -13.71426,-13.48214z"
        class="cls-1 center"
      />
  </g>
  <path
      id="svg_2"
      fill="#a1b986"
      d="m33.29,40.28l0,-1l-25.29,0a6,6 0 0 1 -6,-6l0,-25.28a6,6 0 0 1 6,-6l25.3,0a6,6 0 0 1 6,6l0,25.3a6,6 0 0 1 -6,6l0,2a8,8 0 0 0 8,-8l0,-25.3a8,8 0 0 0 -8,-8l-25.3,0a8,8 0 0 0 -8,8l0,25.3a8,8 0 0 0 8,8l25.3,0l-0.01,-1.02z"
      class="cls-1"
    />
 </g>
</svg>
